<svg xmlns="http://www.w3.org/2000/svg" viewBox="0.97 -15.93 103.29 29.05" fill="none" role="img" aria-label="StadtFix – Taubenabwehr"><path d="M7.92 0.26Q6.49 0.26 5.24 0.01Q3.98 -0.24 3.02 -0.81Q2.07 -1.39 1.52 -2.32Q0.97 -3.26 0.97 -4.62Q0.97 -4.71 0.97 -4.82Q0.97 -4.93 0.99 -4.99H4.8Q4.8 -4.93 4.79 -4.83Q4.77 -4.73 4.77 -4.66Q4.77 -3.96 5.14 -3.53Q5.5 -3.1 6.16 -2.92Q6.82 -2.73 7.7 -2.73Q8.18 -2.73 8.6 -2.77Q9.02 -2.82 9.35 -2.93Q9.68 -3.04 9.93 -3.2Q10.19 -3.37 10.31 -3.6Q10.43 -3.83 10.43 -4.14Q10.43 -4.64 10.04 -4.97Q9.66 -5.3 9.01 -5.52Q8.36 -5.74 7.55 -5.94Q6.73 -6.14 5.85 -6.36Q4.97 -6.58 4.16 -6.91Q3.34 -7.24 2.69 -7.74Q2.05 -8.25 1.66 -9.01Q1.28 -9.77 1.28 -10.85Q1.28 -12.03 1.78 -12.9Q2.29 -13.77 3.18 -14.32Q4.07 -14.87 5.24 -15.12Q6.4 -15.38 7.72 -15.38Q9.02 -15.38 10.15 -15.11Q11.29 -14.85 12.17 -14.29Q13.05 -13.73 13.54 -12.88Q14.04 -12.03 14.06 -10.85V-10.58H10.27V-10.74Q10.27 -11.24 10 -11.63Q9.72 -12.01 9.17 -12.24Q8.62 -12.47 7.81 -12.47Q7 -12.47 6.43 -12.32Q5.87 -12.17 5.58 -11.88Q5.28 -11.59 5.28 -11.2Q5.28 -10.71 5.66 -10.41Q6.05 -10.1 6.71 -9.88Q7.37 -9.66 8.18 -9.47Q9 -9.28 9.87 -9.07Q10.74 -8.87 11.55 -8.55Q12.36 -8.23 13.02 -7.73Q13.68 -7.24 14.07 -6.51Q14.45 -5.79 14.45 -4.75Q14.45 -2.95 13.61 -1.85Q12.76 -0.75 11.27 -0.24Q9.79 0.26 7.92 0.26Z M20.22 0.26Q19.1 0.26 18.31 -0.08Q17.53 -0.42 17.15 -1.1Q16.76 -1.78 16.76 -2.75V-8.98H15.25V-11.59H16.87L17.62 -14.98H20.35V-11.59H22.62V-8.98H20.35V-3.63Q20.35 -3.01 20.59 -2.68Q20.83 -2.35 21.47 -2.35H22.62V-0.11Q22.33 -0.02 21.9 0.08Q21.47 0.18 21.03 0.22Q20.59 0.26 20.22 0.26Z M27.3 0.26Q26.58 0.26 25.88 0.12Q25.19 -0.02 24.63 -0.39Q24.07 -0.75 23.74 -1.39Q23.41 -2.02 23.41 -2.99Q23.41 -4.25 23.94 -5.04Q24.46 -5.83 25.46 -6.28Q26.47 -6.73 27.88 -6.91Q29.3 -7.08 31.06 -7.08V-7.81Q31.06 -8.32 30.87 -8.66Q30.67 -9 30.28 -9.18Q29.9 -9.37 29.26 -9.37Q28.69 -9.37 28.26 -9.24Q27.83 -9.11 27.61 -8.86Q27.39 -8.6 27.39 -8.25V-8.05H23.87Q23.85 -8.16 23.85 -8.24Q23.85 -8.32 23.85 -8.45Q23.85 -9.48 24.5 -10.25Q25.15 -11.02 26.36 -11.44Q27.57 -11.86 29.28 -11.86Q30.89 -11.86 32.09 -11.46Q33.29 -11.07 33.98 -10.25Q34.67 -9.44 34.67 -8.12V-3.17Q34.67 -2.79 34.88 -2.57Q35.09 -2.35 35.4 -2.35H36.15V-0.13Q35.9 -0.02 35.39 0.12Q34.87 0.26 34.14 0.26Q33.4 0.26 32.84 0.08Q32.27 -0.11 31.91 -0.45Q31.55 -0.79 31.42 -1.25H31.26Q30.84 -0.81 30.28 -0.46Q29.72 -0.11 28.98 0.08Q28.25 0.26 27.3 0.26ZM28.64 -2.22Q29.17 -2.22 29.61 -2.38Q30.05 -2.53 30.37 -2.8Q30.69 -3.08 30.88 -3.48Q31.06 -3.87 31.06 -4.33V-5.1Q29.81 -5.1 28.91 -4.93Q28.01 -4.75 27.52 -4.38Q27.04 -4 27.04 -3.43Q27.04 -3.01 27.25 -2.74Q27.46 -2.46 27.81 -2.34Q28.16 -2.22 28.64 -2.22Z M41.29 0.26Q39.82 0.26 38.74 -0.4Q37.66 -1.06 37.09 -2.4Q36.52 -3.74 36.52 -5.83Q36.52 -7.88 37.1 -9.21Q37.69 -10.54 38.74 -11.2Q39.8 -11.86 41.23 -11.86Q41.91 -11.86 42.54 -11.7Q43.16 -11.55 43.66 -11.22Q44.15 -10.89 44.51 -10.41H44.64V-15.93H48.25V0H45.3L45.03 -1.61H44.88Q44.29 -0.66 43.36 -0.2Q42.44 0.26 41.29 0.26ZM42.42 -2.55Q43.21 -2.55 43.7 -2.92Q44.2 -3.28 44.43 -3.95Q44.66 -4.62 44.66 -5.52V-6.05Q44.66 -6.71 44.53 -7.26Q44.4 -7.81 44.13 -8.21Q43.87 -8.6 43.44 -8.82Q43.01 -9.04 42.42 -9.04Q41.6 -9.04 41.11 -8.71Q40.61 -8.38 40.39 -7.74Q40.17 -7.11 40.17 -6.16V-5.39Q40.17 -4.47 40.39 -3.83Q40.61 -3.19 41.11 -2.87Q41.6 -2.55 42.42 -2.55Z M54.52 0.26Q53.39 0.26 52.61 -0.08Q51.83 -0.42 51.45 -1.1Q51.06 -1.78 51.06 -2.75V-8.98H49.54V-11.59H51.17L51.92 -14.98H54.65V-11.59H56.91V-8.98H54.65V-3.63Q54.65 -3.01 54.89 -2.68Q55.13 -2.35 55.77 -2.35H56.91V-0.11Q56.63 -0.02 56.2 0.08Q55.77 0.18 55.33 0.22Q54.89 0.26 54.52 0.26Z" fill="#16181c"/><path d="M58.65 0V-15.11H70.25V-12.03H62.59V-8.78H69.32V-5.76H62.59V0Z M71.92 -13.16V-15.93H75.53V-13.16ZM71.92 0V-11.59H75.53V0Z M76.49 0 80.81 -6.07 76.87 -11.59H81.14L83.18 -8.29H83.29L85.36 -11.59H89.39L85.4 -6.05L89.63 0H85.4L83.03 -3.81H82.92L80.52 0Z" fill="#f05a1e"/><rect x="95.25" y="-9.0" width="9.0" height="9.0" fill="#f05a1e"/><path d="M3.46 13V7.14H1.23V6H7.03V7.14H4.79V13Z M7.94 13 10.66 6H12.33L15.07 13H13.63L13.07 11.51H9.86L9.3 13ZM10.28 10.39H12.64L11.94 8.49Q11.9 8.39 11.84 8.23Q11.78 8.07 11.72 7.88Q11.66 7.69 11.6 7.5Q11.54 7.31 11.49 7.15H11.44Q11.37 7.36 11.29 7.62Q11.2 7.89 11.12 8.12Q11.04 8.36 10.99 8.49Z M20.12 13.12Q19.2 13.12 18.53 12.83Q17.87 12.53 17.52 11.92Q17.17 11.32 17.17 10.41V6H18.49V10.37Q18.49 11.17 18.92 11.59Q19.34 12 20.12 12Q20.89 12 21.33 11.59Q21.76 11.17 21.76 10.37V6H23.09V10.41Q23.09 11.32 22.73 11.92Q22.37 12.53 21.71 12.83Q21.04 13.12 20.12 13.12Z M26.06 13V6H29.88Q30.44 6 30.88 6.21Q31.33 6.43 31.58 6.82Q31.84 7.2 31.84 7.72Q31.84 8.12 31.68 8.45Q31.53 8.78 31.27 8.99Q31.01 9.21 30.68 9.33V9.37Q31.07 9.45 31.38 9.68Q31.68 9.91 31.86 10.26Q32.03 10.61 32.03 11.07Q32.03 11.72 31.74 12.15Q31.45 12.58 30.97 12.79Q30.48 13 29.88 13ZM27.39 11.87H29.7Q30.12 11.87 30.39 11.64Q30.66 11.41 30.66 10.92Q30.66 10.63 30.55 10.42Q30.44 10.2 30.21 10.09Q29.98 9.97 29.62 9.97H27.39ZM27.39 8.86H29.53Q29.84 8.86 30.05 8.74Q30.26 8.63 30.36 8.44Q30.47 8.24 30.47 8.01Q30.47 7.56 30.23 7.35Q29.99 7.13 29.6 7.13H27.39Z M34.73 13V6H40.19V7.13H36.06V8.86H39.74V9.99H36.06V11.87H40.25V13Z M43.06 13V6H44.32L47.31 10.13Q47.36 10.19 47.43 10.3Q47.5 10.41 47.57 10.51Q47.63 10.61 47.65 10.67H47.7Q47.7 10.53 47.7 10.4Q47.7 10.27 47.7 10.13V6H48.97V13H47.72L44.72 8.84Q44.64 8.71 44.53 8.54Q44.42 8.36 44.38 8.29H44.33Q44.33 8.42 44.33 8.56Q44.33 8.69 44.33 8.84V13Z M51.27 13 53.99 6H55.66L58.4 13H56.96L56.4 11.51H53.19L52.63 13ZM53.61 10.39H55.97L55.27 8.49Q55.23 8.39 55.17 8.23Q55.11 8.07 55.05 7.88Q54.99 7.69 54.93 7.5Q54.87 7.31 54.82 7.15H54.77Q54.71 7.36 54.62 7.62Q54.53 7.89 54.45 8.12Q54.37 8.36 54.32 8.49Z M60.69 13V6H64.51Q65.07 6 65.51 6.21Q65.96 6.43 66.21 6.82Q66.47 7.2 66.47 7.72Q66.47 8.12 66.31 8.45Q66.16 8.78 65.9 8.99Q65.64 9.21 65.31 9.33V9.37Q65.7 9.45 66.01 9.68Q66.31 9.91 66.49 10.26Q66.66 10.61 66.66 11.07Q66.66 11.72 66.37 12.15Q66.08 12.58 65.59 12.79Q65.11 13 64.51 13ZM62.02 11.87H64.33Q64.75 11.87 65.02 11.64Q65.29 11.41 65.29 10.92Q65.29 10.63 65.18 10.42Q65.07 10.2 64.84 10.09Q64.61 9.97 64.25 9.97H62.02ZM62.02 8.86H64.16Q64.47 8.86 64.68 8.74Q64.89 8.63 64.99 8.44Q65.1 8.24 65.1 8.01Q65.1 7.56 64.86 7.35Q64.62 7.13 64.23 7.13H62.02Z M70.48 13 68.59 6H69.99L71.13 10.5Q71.16 10.6 71.19 10.78Q71.22 10.96 71.25 11.15Q71.28 11.35 71.3 11.5H71.35Q71.37 11.38 71.39 11.23Q71.4 11.09 71.43 10.95Q71.45 10.81 71.47 10.69Q71.49 10.57 71.5 10.5L72.56 6H74.26L75.31 10.5Q75.34 10.6 75.37 10.78Q75.4 10.96 75.43 11.15Q75.46 11.35 75.48 11.5H75.54Q75.56 11.39 75.58 11.25Q75.61 11.11 75.63 10.97Q75.66 10.84 75.69 10.71Q75.72 10.59 75.74 10.5L76.87 6H78.12L76.21 13H74.69L73.56 8.41Q73.53 8.27 73.49 8.08Q73.45 7.89 73.43 7.7Q73.4 7.51 73.38 7.37H73.34Q73.33 7.52 73.31 7.72Q73.28 7.92 73.25 8.1Q73.22 8.29 73.19 8.41L72.07 13Z M80.46 13V6H85.92V7.13H81.79V8.86H85.47V9.99H81.79V11.87H85.98V13Z M88.78 13V6H90.11V8.85H93.38V6H94.7V13H93.38V9.99H90.11V13Z M97.72 13V6H101.4Q102.18 6 102.69 6.27Q103.2 6.53 103.45 7.02Q103.71 7.51 103.71 8.17Q103.71 8.86 103.4 9.38Q103.1 9.91 102.5 10.17L103.95 13H102.5L101.22 10.4H99.05V13ZM99.05 9.29H101.3Q101.81 9.29 102.09 8.99Q102.36 8.69 102.36 8.17Q102.36 7.84 102.24 7.61Q102.12 7.38 101.88 7.26Q101.65 7.13 101.3 7.13H99.05Z" fill="#5c646d"/></svg>
